<svg width="299.997" height="299.997" xmlns="http://www.w3.org/2000/svg">

 <g>
  <title>background</title>
  <rect fill="none" id="canvas_background" height="402" width="582" y="-1" x="-1"/>
 </g>
 <g>
  <title>Layer 1</title>
  <g id="svg_1">
   <g id="svg_2">
    <path fill="#0000bf" id="svg_3" d="m149.996,0c-82.839,0 -149.995,67.158 -149.995,149.997c0,82.837 67.156,150 149.995,150s150,-67.163 150,-150c0,-82.841 -67.161,-149.997 -150,-149.997zm0.457,220.763l0,-0.002l-0.916,0l-64.072,0c0,-46.856 41.152,-46.845 50.284,-59.097l1.045,-5.587c-12.83,-6.502 -21.887,-22.178 -21.887,-40.512c0,-24.154 15.712,-43.738 35.089,-43.738c19.377,0 35.089,19.584 35.089,43.738c0,18.178 -8.896,33.756 -21.555,40.361l1.19,6.349c10.019,11.658 49.802,12.418 49.802,58.488l-64.069,0z"/>
   </g>
  </g>
  <g id="svg_4"/>
  <g id="svg_5"/>
  <g id="svg_6"/>
  <g id="svg_7"/>
  <g id="svg_8"/>
  <g id="svg_9"/>
  <g id="svg_10"/>
  <g id="svg_11"/>
  <g id="svg_12"/>
  <g id="svg_13"/>
  <g id="svg_14"/>
  <g id="svg_15"/>
  <g id="svg_16"/>
  <g id="svg_17"/>
  <g id="svg_18"/>
 </g>
</svg>